PathFileType	4	(X/Y/Z)	C:\Users\Vitor Bertoli\OneDrive\Documents\Yolotestes\IMG_0211_Sports2D\IMG_0211_Sports2D_m_person00.trc
DataRate	CameraRate	NumFrames	NumMarkers	Units	OrigDataRate	OrigDataStartFrame	OrigNumFrames
116	116	8	22	m	116	327	436
Frame#	Time	Hip			RHip			RKnee			RAnkle			RBigToe			RSmallToe			RHeel			LHip			LKnee			LAnkle			LBigToe			LSmallToe			LHeel			Neck			Head			Nose			RShoulder			RElbow			RWrist			LShoulder			LElbow			LWrist		
		X1	Y1	Z1	X2	Y2	Z2	X3	Y3	Z3	X4	Y4	Z4	X5	Y5	Z5	X6	Y6	Z6	X7	Y7	Z7	X8	Y8	Z8	X9	Y9	Z9	X10	Y10	Z10	X11	Y11	Z11	X12	Y12	Z12	X13	Y13	Z13	X14	Y14	Z14	X15	Y15	Z15	X16	Y16	Z16	X17	Y17	Z17	X18	Y18	Z18	X19	Y19	Z19	X20	Y20	Z20	X21	Y21	Z21	X22	Y22	Z22
327	2.8189655172413794	11.23902028344294	0.9148069447990302	0.0	11.260965108134322	0.9301648517902282	0.0	11.42843089698485	0.5187843650751554	0.0	11.266003054795284	0.08974177600166706	0.0	11.461469073958355	-0.02108036959987711	0.0	11.421481040898458	-0.031070868287819874	0.0	11.197173199231095	0.05264330043434178	0.0	11.213193281080603	0.9326903673907952	0.0	11.413410950994935	0.5209296684918913	0.0	10.982492181602348	0.4244151886020414	0.0	10.917153926958877	0.2725055940130869	0.0	10.904212150364355	0.29510366132761817	0.0	10.89690371733083	0.46899622028270965	0.0	11.428095238517749	1.498590584999712	0.0	11.594428980429019	1.7174911702533813	0.0	11.600957726594167	1.5577039062841187	0.0	11.394740115781975	1.4279290612548947	0.0	11.278956054071218	1.1883707455883594	0.0	11.430453396344939	0.9752145593630815	0.0	11.320655227106105	1.4459845984005435	0.0	11.168372856685874	1.1971189750491757	0.0	11.256182336212639	0.9790599446666826	0.0
328	2.8275862068965516	11.296770311484803	0.9108694552949688	0.0	11.313583732608475	0.925446182291254	0.0	11.456149157677059	0.5111244233061826	0.0	11.269037601063117	0.08826539687078346	0.0	11.462040984025357	-0.02535376252407187	0.0	11.419240382913044	-0.03357656023869562	0.0	11.198653041792841	0.05280796357738184	0.0	11.276070778604051	0.9281328790386006	0.0	11.499595697114586	0.5302182622230103	0.0	11.073970837342383	0.4128175478534235	0.0	11.024813531094699	0.25812255379907456	0.0	11.010477373403646	0.28179578581092146	0.0	10.986882819487445	0.45441854167270157	0.0	11.482123288958578	1.4993836016707074	0.0	11.64166547540207	1.7232379831710345	0.0	11.655385252975401	1.5617917799462766	0.0	11.45430888784904	1.4260051093946284	0.0	11.346576257047479	1.182409383260187	0.0	11.50897110566298	0.9848892333851671	0.0	11.368374352326095	1.4446900609905826	0.0	11.200906027441752	1.2054738337445654	0.0	11.275318737558297	0.985306172105213	0.0
329	2.836206896551724	11.354634462526308	0.9073165112365239	0.0	11.366619807521735	0.9210533543567044	0.0	11.48243540652	0.5053909727671199	0.0	11.2721971990418	0.08890825522683825	0.0	11.461233113196753	-0.028327145939853873	0.0	11.415974523663165	-0.03447447331107893	0.0	11.200751377836193	0.05538418752026467	0.0	11.339535087743709	0.9240031077461242	0.0	11.585069560129213	0.5409307395716857	0.0	11.16672158007272	0.3993723773307808	0.0	11.135914511360737	0.24182452677213673	0.0	11.119669171348862	0.266784216304842	0.0	11.078182317454397	0.4369924516872537	0.0	11.536113436969174	1.5014331343954435	0.0	11.688627731977096	1.7295492056121535	0.0	11.70958876493155	1.5669857989586122	0.0	11.514528887842124	1.4254904763423328	0.0	11.414313411969943	1.1784962147271243	0.0	11.58602634891407	0.9972144708722022	0.0	11.415847416914307	1.4444848752861312	0.0	11.234430966529132	1.214874496471549	0.0	11.295307393419636	0.9921797050212374	0.0
330	2.8448275862068964	11.412497620075326	0.9042977761176269	0.0	11.420023201688952	0.917086129407866	0.0	11.50765011003935	0.5017392120229373	0.0	11.276302208252876	0.09173795004418697	0.0	11.459514912588741	-0.029955486091531185	0.0	11.412337329724357	-0.033707295123494393	0.0	11.204364505664838	0.06057164371462708	0.0	11.403396950192715	0.9204791312550757	0.0	11.66879449905381	0.5527250330924139	0.0	11.260667045681952	0.3841960193015453	0.0	11.249794412587924	0.22381860128643974	0.0	11.231431010034717	0.2502028305058315	0.0	11.171081920252599	0.4166261721427563	0.0	11.590143521978854	1.5048458906714124	0.0	11.735305846091736	1.7363602117830483	0.0	11.763554716703217	1.5732064300790087	0.0	11.575455491913344	1.4264126500290932	0.0	11.481966258683508	1.1766071122671509	0.0	11.661433985406429	1.0118633763349079	0.0	11.46315415573817	1.4454116591802697	0.0	11.26919049496493	1.2252294011002702	0.0	11.317032494539149	0.9993819034191715	0.0
331	2.853448275862069	11.470314487511937	0.9019318604102654	0.0	11.473777066406948	0.9136440262898937	0.0	11.532277266289942	0.5002706750738398	0.0	11.282037238158342	0.09678559319509876	0.0	11.457242074858625	-0.030180532317902162	0.0	11.408853723029345	-0.03121363287637194	0.0	11.210204003633486	0.06853310192834991	0.0	11.46748730950963	0.9176924263054262	0.0	11.750007041679156	0.5651806023461003	0.0	11.355654994688845	0.36739572618211014	0.0	11.365536301686447	0.20430441707738323	0.0	11.345299820043687	0.2321062739019531	0.0	11.26581723687592	0.3933264199418376	0.0	11.644224756189779	1.5095984087630074	0.0	11.781738368104484	1.7435718040171122	0.0	11.817241163646248	1.5802838096501655	0.0	11.637067732202526	1.4287133680986899	0.0	11.549386479188918	1.1766476524698393	0.0	11.735087105870948	1.0284044051496704	0.0	11.510300433967283	1.4474118614632523	0.0	11.30538826400709	1.2363321783963686	0.0	11.341250528141352	1.0067790055846768	0.0
332	2.8620689655172415	11.528130674679828	0.9003198470543402	0.0	11.527928808493598	0.9108252234663086	0.0	11.556927507934029	0.5009939040509059	0.0	11.289957603129531	0.10405904099887467	0.0	11.454683233150735	-0.02890794220437235	0.0	11.405942954529012	-0.026918846288208693	0.0	11.218787696009166	0.07936912446407202	0.0	11.531654742808701	0.9157141776782716	0.0	11.828256575337731	0.577836103128245	0.0	11.451528197630868	0.3491855242909096	0.0	11.482228464937801	0.18359967477640304	0.0	11.460726255066804	0.21264400416155077	0.0	11.362441200555008	0.36747940292407133	0.0	11.698291735343185	1.5155267927290006	0.0	11.8280601106731	1.7510573783472616	0.0	11.870580927159642	1.5879841010403786	0.0	11.699237623144823	1.4322552796393937	0.0	11.616489694616757	1.1784477276372685	0.0	11.806923419175979	1.0463096783719326	0.0	11.557209644532008	1.450361652438725	0.0	11.343153014946886	1.2479065538935032	0.0	11.368475837760682	1.014339502505799	0.0
333	2.8706896551724137	11.586072640385025	0.8995562591364674	0.0	11.582603089485902	0.9087313633575881	0.0	11.582297204077223	0.503772329764688	0.0	11.300491254891385	0.11357326548007056	0.0	11.452096170745177	-0.02597320376703653	0.0	11.403977356791094	-0.020716923593222757	0.0	11.230448948154578	0.09313662835151508	0.0	11.595784104461075	0.914572061785689	0.0	11.903363157607386	0.5902239151476196	0.0	11.548184045617983	0.33002081257830196	0.0	11.59921859492416	0.16235017426103665	0.0	11.577101103668417	0.19234220795540122	0.0	11.460784862866129	0.34004269120862357	0.0	11.752242453250394	1.5223589912620077	0.0	11.874487224915026	1.758670541734512	0.0	11.9235101062584	1.5960475283347153	0.0	11.76174968229152	1.4368450804234745	0.0	11.683230357133823	1.1817700372726145	0.0	11.87690461380509	1.0649924833591373	0.0	11.603789446236403	1.4541064233619152	0.0	11.382535804310256	1.259653077023486	0.0	11.399012897719796	1.0220406619070677	0.0
334	2.8793103448275863	11.644298135592855	0.8997182017498387	0.0	11.637971212757817	0.9074782162635129	0.0	11.609089385866978	0.5083192145163956	0.0	11.31391531632	0.12536124623229705	0.0	11.449778959213296	-0.021132871131593994	0.0	11.403308074830369	-0.012455660143087563	0.0	11.245346129982195	0.10986634950145792	0.0	11.659797974329475	0.9142865463163958	0.0	11.97536228931306	0.6019048792583038	0.0	11.645528362451762	0.3105764181743241	0.0	11.716084102194156	0.14154967668358132	0.0	11.693783965389384	0.1721640961199662	0.0	11.560546038426851	0.31234367774782473	0.0	11.805983528680304	1.529777473488147	0.0	11.921242723854196	1.7662543918424545	0.0	11.976004914768163	1.6042170346125186	0.0	11.824357945607503	1.4422624658492296	0.0	11.7495740362264	1.1863252040679217	0.0	11.945008291533052	1.083858753769695	0.0	11.650017943636936	1.4584841886426065	0.0	11.423529848490462	1.271286146843025	0.0	11.43301098623844	1.029830102152435	0.0
